<svg width="128" height="128" viewBox="0 0 128 128" fill="none" xmlns="http://www.w3.org/2000/svg">
<rect x="12" y="12" width="104" height="104" rx="8" fill="#121212"/>
<path d="M64.4492 108.207L112.899 34H16L64.4492 108.207Z" fill="url(#paint0_linear_2614_3328)"/>
<path d="M26.759 80.3882C28.7335 78.2821 33.6304 73.4643 37.4214 71.0422C41.2124 68.6201 45.7583 61.6962 47.5573 58.5369C53.042 50.4634 65.3279 33.6055 70.5933 30.7621C71.541 30.025 72.9188 28.8754 73.4893 28.3928C75.4638 24.0049 82.1771 16.5456 93.2344 21.8111C94.1822 21.4951 96.5252 21.4161 97.5783 21.4161C96.7446 21.9866 94.9982 23.6539 94.6823 25.7601C93.8398 31.5519 90.6456 34.9306 89.1537 35.8959C88.1006 42.6093 86.6526 48.5328 83.4934 50.6389L86.3894 55.7726C90.7333 60.3799 99.7371 70.3314 101 73.2801C96.7885 71.911 94.0681 70.6034 93.2344 70.1208L101 80.7832C96.4374 80.4321 86.1787 77.466 81.6506 68.4096C83.4408 73.2537 85.2046 79.2913 85.8628 81.7046C83.4056 79.6862 78.1227 73.8328 76.6484 66.5667C77.0697 73.6223 76.9994 78.6331 76.9117 80.2566C75.727 79.1597 72.989 75.7547 71.5147 70.9106V79.0719C69.7465 76.6137 66.1896 70.6458 65.8683 66.1426C66.1648 71.2468 65.9841 73.6396 65.8544 74.2014L59.1411 67.8831C57.3421 68.8484 52.5067 71.0422 47.5573 72.0953C44.1874 74.9386 40.098 82.0556 38.4745 85.2587V81.1781L33.999 85.6536L35.5785 80.9148L32.6826 83.4159C32.0244 83.8107 30.4974 84.6006 29.655 84.6006C29.9709 83.8634 30.5765 83.0649 30.8397 82.7577L27.0223 84.2057C27.4611 82.9332 28.8389 80.125 30.8397 79.0719C28.1017 80.125 26.9785 80.3882 26.759 80.3882Z" fill="white"/>
<defs>
<linearGradient id="paint0_linear_2614_3328" x1="64.4492" y1="108.207" x2="64.4492" y2="9.26432" gradientUnits="userSpaceOnUse">
<stop stop-color="#01D6E6"/>
<stop offset="1" stop-color="#0182E7"/>
</linearGradient>
</defs>
</svg>
